<svg width="20" height="20" viewBox="0 0 20 20" fill="none" xmlns="http://www.w3.org/2000/svg">
<path d="M12.5734 1H7.42661C7.25465 1 7.1168 1.14299 7.11308 1.32072C7.00911 6.31659 4.48038 11.0582 0.127923 14.4168C-0.0102608 14.5234 -0.0417421 14.7237 0.0592828 14.868L3.07054 19.1717C3.17299 19.3182 3.37259 19.3512 3.5131 19.2436C6.23455 17.1573 8.42358 14.6405 9.99998 11.8509C11.5764 14.6405 13.7655 17.1573 16.487 19.2436C16.6273 19.3512 16.827 19.3182 16.9295 19.1717L19.9408 14.868C20.0417 14.7237 20.0102 14.5234 19.8722 14.4168C15.5195 11.0582 12.9909 6.31659 12.887 1.32072C12.8832 1.14299 12.7453 1 12.5734 1Z" fill="#BFBFBF"/>
</svg>
