<svg width="20" height="20" viewBox="0 0 20 20" fill="none" xmlns="http://www.w3.org/2000/svg">
<path d="M12.6922 1.6352C12.7213 1.68594 12.6827 1.74866 12.6254 1.74866C11.4647 1.74866 10.5212 2.69313 10.499 3.86674C10.1016 3.79048 9.68981 3.78475 9.28298 3.85519C9.25488 2.68694 8.31371 1.74866 7.15683 1.74866C7.09947 1.74866 7.06088 1.68589 7.09005 1.63512C7.65191 0.657145 8.69596 0 9.89108 0C11.0862 0 12.1303 0.657184 12.6922 1.6352Z" fill="#BFBFBF"/>
<path d="M16.1295 8.89382C16.5243 9.0167 16.8963 8.66006 16.7473 8.2647C15.6401 5.3267 12.3628 4.12305 9.8749 4.12305C7.38217 4.12305 4.03189 5.36562 2.99673 8.28304C2.85737 8.67582 3.22841 9.0207 3.61734 8.89821L9.57948 7.0205C9.75158 6.96631 9.93548 6.96601 10.1078 7.01962L16.1295 8.89382Z" fill="#BFBFBF"/>
<path d="M2.93867 9.45936L9.58464 7.38775C9.75572 7.33444 9.9383 7.33429 10.1095 7.38732L16.7972 9.46039C17.3557 9.63351 17.7378 10.1622 17.7378 10.7617V17.0077C17.7119 18.5322 16.3793 19.7542 14.8964 19.7542H12.4334C12.19 19.7542 11.9928 19.5519 11.9928 19.3016V17.1117C11.9928 16.2494 12.4893 15.469 13.2577 15.1235C14.2877 14.6605 15.5061 14.0341 15.7353 12.7773C15.8093 12.3716 15.5519 11.9803 15.1582 11.8999C14.1627 11.6965 13.0591 11.7751 12.1258 12.2041C11.0664 12.6911 10.7892 13.5013 10.6866 14.5893L10.5623 15.7614C10.5243 16.1197 10.1975 16.3941 9.84698 16.3941C9.48445 16.3941 9.21259 16.1103 9.17328 15.7397L9.05123 14.5893C8.96333 13.6574 8.80401 12.752 7.86659 12.3211C6.79733 11.8296 5.72275 11.6663 4.57961 11.8999C4.18592 11.9803 3.92855 12.3716 4.00252 12.7773C4.23369 14.0451 5.4426 14.6571 6.48016 15.1235C7.2485 15.469 7.74503 16.2494 7.74503 17.1117V19.3012C7.74503 19.5515 7.54796 19.7542 7.3045 19.7542H4.84138C3.35848 19.7542 2.0259 18.5322 2 17.0077V10.7601C2 10.1614 2.38119 9.63312 2.93867 9.45936Z" fill="#BFBFBF"/>
</svg>
