<?xml version="1.0" encoding="utf-8"?>
<svg width="92" height="93" viewBox="0 0 92 93" fill="none" xmlns="http://www.w3.org/2000/svg">
<rect x="0.5" y="1" width="91" height="91" rx="15.5" fill="url(#paint0_radial_315_105840)"/>
<rect x="0.5" y="1" width="91" height="91" rx="15.5" stroke="#262626"/>
<path d="M54.9534 30.0412C55.4729 30.8825 56.2347 31.5817 57.1813 32.0201C59.7555 33.2051 62.7799 32.0201 63.9342 29.3776C63.9804 29.271 64.0265 29.1643 64.0612 29.0577V29.0458C64.1073 28.951 64.1651 28.8444 64.2112 28.7377C64.2112 28.7259 64.2112 28.7259 64.2228 28.714C64.2459 28.6666 64.2574 28.6311 64.2805 28.5837C64.5229 27.9912 64.6499 27.3631 64.6614 26.7588V26.6166C64.6614 25.9767 64.5575 25.3486 64.3382 24.768C64.3382 24.7562 64.3382 24.7562 64.3267 24.7443C64.3151 24.7206 64.3151 24.7088 64.3036 24.6851C64.292 24.6732 64.292 24.6495 64.2805 24.6377C64.0496 24.057 63.7264 23.5238 63.3224 23.0616L63.2993 23.0379L63.2531 22.9905L63.23 22.9668C62.8145 22.5165 62.3181 22.1492 61.7409 21.8648C61.7063 21.8411 61.6601 21.8292 61.6255 21.8055H61.614C61.0368 21.5448 60.4365 21.4026 59.8478 21.3552C59.8017 21.3552 59.7555 21.3552 59.7093 21.3434C59.086 21.3197 58.4626 21.4145 57.8739 21.6278C57.8277 21.6396 57.7931 21.6633 57.7469 21.6752C57.1698 21.9003 56.6272 22.2321 56.1539 22.6469C56.1193 22.6824 56.0847 22.7061 56.0501 22.7417C55.5999 23.1683 55.2189 23.7015 54.9303 24.294C54.9073 24.3296 54.8957 24.377 54.8726 24.4244C54.8726 24.4362 54.8611 24.4362 54.8611 24.4481C54.8149 24.5547 54.7803 24.6614 54.7341 24.7562V24.768C54.6764 24.8747 54.6302 24.9695 54.584 25.0761C54.2147 25.9293 54.0761 26.818 54.1569 27.6949C54.2493 28.5363 54.5148 29.3421 54.9534 30.0412ZM73.6653 56.0635C73.6653 55.9805 73.6537 55.8857 73.6422 55.8028V55.7791C73.6306 55.7435 73.6306 55.708 73.6191 55.6843C73.596 55.625 73.5729 55.5539 73.5498 55.4947C73.5498 55.4828 73.5383 55.4828 73.5383 55.471C73.5152 55.4236 73.4921 55.3762 73.4575 55.3406L73.319 55.1629L73.2843 55.1273C73.2728 55.1155 73.2613 55.0918 73.2382 55.0799C73.2151 55.0562 73.192 55.0325 73.1689 54.997L73.1458 54.9733C72.2223 53.9542 70.4216 52.947 67.2241 54.3334C66.4391 54.677 65.6888 55.0207 64.9731 55.3643L64.4536 55.6132C64.4652 55.6013 64.4652 55.5895 64.4767 55.5658C63.357 56.1109 62.2604 56.6323 61.1291 57.0826C63.7149 54.9614 65.4117 51.7383 65.5156 48.0885C65.5272 47.8278 65.5272 47.5553 65.5156 47.2946C65.5387 47.0339 65.5618 46.7732 65.5618 46.5125V46.1451C65.5618 44.6639 65.2963 43.2538 64.823 41.9384C64.823 41.9266 64.8115 41.9147 64.8115 41.9147L64.7999 41.8673C64.7884 41.8437 64.7884 41.82 64.7769 41.8081C64.7538 41.7607 64.7422 41.7015 64.7191 41.6541C64.1881 40.3032 63.4263 39.0826 62.4797 38.028L62.4566 38.0043C62.3989 37.9332 62.3297 37.8739 62.2719 37.8029C61.3138 36.7838 60.171 35.9424 58.9013 35.3262C58.8089 35.2788 58.7166 35.2433 58.6242 35.1959C57.366 34.6271 56.0039 34.2716 54.5494 34.1886C54.4571 34.1886 54.3532 34.1768 54.2608 34.1768H54.2493C52.8064 34.1294 51.4211 34.3664 50.1283 34.8167C50.1167 34.8167 50.1052 34.8285 50.0937 34.8285C50.059 34.8404 50.0359 34.8522 50.0013 34.8641C49.9436 34.8878 49.8974 34.8996 49.8397 34.9233C49.1471 35.184 48.4891 35.5158 47.8658 35.9069C47.4733 34.6745 46.8038 33.5132 45.8457 32.5415C45.7187 32.4112 45.5802 32.2808 45.4417 32.1623C45.4417 32.1623 45.4301 32.1623 45.4301 32.1505C45.3147 32.0083 45.1877 31.8779 45.0607 31.7476C45.0492 31.7357 45.0377 31.7357 45.0377 31.7239C44.9799 31.6765 44.9338 31.6172 44.876 31.5698C44.1257 30.847 43.2831 30.29 42.3827 29.9108C42.3711 29.9108 42.3596 29.899 42.348 29.899C42.3134 29.8871 42.2788 29.8753 42.2557 29.8634C42.2326 29.8516 42.2095 29.8397 42.1864 29.8397C41.2399 29.4605 40.2471 29.271 39.2544 29.2591H39.0351C38.0539 29.271 37.0612 29.4724 36.1377 29.8516C36.1262 29.8516 36.1031 29.8634 36.0915 29.8753C36.0569 29.8871 36.0223 29.899 35.9876 29.9227C35.9645 29.9345 35.953 29.9345 35.9299 29.9464C35.0295 30.3374 34.1753 30.8944 33.4365 31.6291C33.3904 31.6765 33.3327 31.7239 33.2865 31.7713L33.2749 31.7831C32.5477 32.5297 31.9821 33.3829 31.5781 34.2953C31.5434 34.3664 31.5203 34.4375 31.4857 34.4967C31.0932 35.4684 30.8739 36.4994 30.8393 37.5303V37.7555C30.8277 38.7864 31.0124 39.8292 31.3587 40.8127C31.3818 40.8838 31.4049 40.9549 31.4395 41.026C31.8205 41.9858 32.3745 42.8864 33.1018 43.6804C33.148 43.7396 33.2057 43.787 33.2518 43.8463C33.2634 43.8581 33.2634 43.87 33.2749 43.87C33.4019 44.0003 33.5289 44.1188 33.6674 44.2492L33.679 44.261C33.7944 44.4032 33.9214 44.5336 34.0483 44.6758C35.0988 45.7541 36.357 46.4769 37.6845 46.868C38.9543 47.2353 40.3049 47.2827 41.5977 47.022C41.8055 46.9746 42.0133 46.9272 42.2211 46.868L42.1864 47.4012C42.1749 47.6264 42.1749 47.8397 42.1864 48.0648C42.2211 49.7238 42.5905 51.3117 43.2369 52.7455C40.7089 53.2432 38.0193 53.4684 34.9256 53.5513C34.7871 53.5513 34.6371 53.5632 34.4985 53.5869C34.3485 53.5987 34.1984 53.6224 34.0483 53.6461C34.0253 53.6461 33.9906 53.658 33.9675 53.658C33.8521 53.6817 33.7367 53.6935 33.6212 53.7172C33.5866 53.7291 33.5635 53.7291 33.5289 53.7409C33.4019 53.7646 33.2865 53.7883 33.171 53.8239C33.1595 53.8239 33.1364 53.8357 33.1249 53.8357C32.8478 53.9068 32.5939 53.9779 32.3399 54.0727C32.3168 54.0846 32.2937 54.0846 32.2707 54.0964C32.1668 54.132 32.0744 54.1675 31.9705 54.2031C31.9474 54.2149 31.9128 54.2267 31.8897 54.2386C31.7858 54.286 31.6704 54.3216 31.5665 54.369C31.555 54.369 31.5434 54.3808 31.5434 54.3808C31.428 54.4282 31.3126 54.4874 31.1971 54.5348C31.1856 54.5467 31.174 54.5467 31.1509 54.5585L30.8739 54.7007C30.8508 54.7126 30.8162 54.7363 30.7931 54.7481C30.7123 54.7837 30.643 54.8311 30.5738 54.8785C30.5507 54.8903 30.5161 54.914 30.493 54.9259C30.4006 54.9733 30.3198 55.0325 30.239 55.0799C30.2275 55.0799 30.2159 55.0918 30.2159 55.0918C30.1236 55.151 30.0312 55.2103 29.9504 55.2695C29.9273 55.2932 29.8927 55.3051 29.8696 55.3288C29.835 55.3525 29.7888 55.3762 29.7542 55.4117L29.7427 55.3406L29.6272 54.4993C29.581 54.1557 29.3963 53.8713 29.1424 53.6935C28.9692 53.5632 28.7499 53.4921 28.5191 53.4802C28.4613 53.4802 28.3921 53.4802 28.3228 53.4921L26.4874 53.7528V53.0418C26.4874 52.2715 25.8756 51.6553 25.1368 51.6553H19.5845C18.8341 51.6553 18.2339 52.2834 18.2339 53.0418V72.0726C18.2339 72.8429 18.8457 73.4591 19.5845 73.4591H25.1368C25.7833 73.4591 26.3258 72.9969 26.4643 72.3689L27.1338 72.2741L27.6418 72.203L27.8957 72.1674L30.8162 71.7527C31.2548 71.6934 31.6011 71.3735 31.7397 70.9706C31.7858 70.8403 31.8089 70.6981 31.7974 70.544C31.7974 70.5085 31.7974 70.4611 31.7858 70.4255L31.6358 69.3472C32.9863 68.6954 34.5909 68.2925 36.3916 68.5295C41.9671 69.2287 48.8239 72.9377 55.9346 69.2287C58.3587 67.9726 61.2215 66.0766 63.9573 64.1332C68.0206 61.2419 71.7722 58.232 73.3074 56.9996C73.3998 56.9167 73.4806 56.8219 73.5383 56.7152C73.5729 56.656 73.6076 56.5849 73.6306 56.5138V56.5019C73.6653 56.4071 73.6768 56.3005 73.6884 56.2057V56.182C73.6653 56.0872 73.6653 56.0753 73.6653 56.0635Z" fill="#524F44"/>
<path d="M72.9211 54.3498C70.37 56.4235 61.574 63.4386 55.5599 66.5789C48.4491 70.2879 41.5924 66.5789 36.0169 65.8797C34.2161 65.6546 32.6116 66.0575 31.261 66.6974C29.5872 67.5031 28.3175 68.6881 27.5556 69.5176L27.5094 69.5295L26.7476 69.6361V55.4637C26.7476 55.4637 27.5671 54.0299 29.3564 52.7619C30.5222 51.9443 32.0922 51.1859 34.1238 50.9489C36.5479 50.6645 39.1105 52.0746 41.8348 53.6033C44.8822 55.3096 48.1259 57.1701 51.612 56.9568C56.391 56.6724 59.4615 55.2741 62.8091 53.6507C64.0904 53.0345 65.4064 52.3827 66.8724 51.7428C70.4624 50.1905 72.2863 51.648 73.1058 52.7619C73.4521 53.2478 73.3598 53.9825 72.9211 54.3498Z" fill="#CFC490"/>
<path d="M34.1238 52.037C36.5479 51.7526 39.1105 53.1627 41.8348 54.6914C44.8822 56.3977 48.1259 58.2582 51.612 58.0449C56.391 57.7605 59.4615 56.3622 62.8091 54.7388C64.0904 54.1226 65.4064 53.4708 66.8724 52.8309C70.4624 51.2786 72.2863 52.7361 73.1058 53.85C73.1405 53.8974 73.1751 53.9567 73.1982 54.0041C73.3829 53.6249 73.3713 53.1272 73.1058 52.7717C72.2978 51.6578 70.4624 50.2003 66.8724 51.7526C65.4064 52.3925 64.0904 53.0442 62.8091 53.6604C59.4615 55.2839 56.391 56.6821 51.612 56.9665C48.1259 57.1798 44.8822 55.3194 41.8348 53.613C39.1105 52.0844 36.5479 50.6743 34.1238 50.9587C28.9754 51.563 26.7476 55.4616 26.7476 55.4616V56.54C26.7476 56.54 28.9754 52.6413 34.1238 52.037Z" fill="#CFC490"/>
<path d="M64.1112 52.9873C62.1489 57.6325 57.9932 60.7727 53.272 60.5949C50.8825 60.512 48.6893 59.5877 46.877 58.0946C45.9304 57.3125 45.0877 56.3645 44.3836 55.298C44.095 54.8714 43.8295 54.4211 43.5986 53.9471C43.691 53.9234 43.7833 53.9116 43.8641 53.8879C44.095 53.8405 44.3259 53.7812 44.5452 53.7338C45.2147 54.1012 45.8842 54.4567 46.5653 54.7766C48.5854 55.7365 50.6863 56.4238 52.8911 56.2934C57.6931 56.009 60.7637 54.6107 64.1112 52.9873Z" fill="#F3E7A9"/>
<path d="M65.1661 45.5202C64.9699 52.1325 59.5791 57.3346 53.1379 57.1331C51.2448 57.0739 49.4671 56.5525 47.9087 55.6756C47.5047 55.4504 47.1238 55.2016 46.7544 54.929C45.4038 53.9455 44.2726 52.6657 43.4299 51.1963C43.3606 51.0778 43.2914 50.9475 43.2221 50.8171L43.1529 50.6749C42.3448 49.0989 41.8831 47.3214 41.8369 45.4373V44.7737C41.8485 44.513 41.86 44.2405 41.8831 43.9916C41.9062 43.7072 41.9408 43.4347 41.987 43.1621C41.9985 43.0555 42.0216 42.9488 42.0447 42.854C42.3217 41.4083 42.8412 40.0575 43.58 38.8488C43.6377 38.754 43.6954 38.671 43.7531 38.5762C43.9378 38.2918 44.1225 38.0193 44.3303 37.7586C44.9305 36.9647 45.6347 36.2537 46.4081 35.6493C46.4889 35.5782 46.5697 35.519 46.6621 35.4597C46.9622 35.2346 47.2854 35.0213 47.6086 34.8198C48.3589 34.3695 49.1554 34.0022 49.9981 33.7296C50.0904 33.6941 50.1943 33.6704 50.2867 33.6348C51.4179 33.303 52.6069 33.1371 53.842 33.1727H53.8651C53.9575 33.1727 54.0614 33.1845 54.1537 33.1845C55.3889 33.2556 56.5778 33.5163 57.6745 33.9548C57.7668 33.9903 57.8707 34.0259 57.963 34.0733C59.1058 34.5591 60.1563 35.2227 61.0682 36.0285C61.149 36.0996 61.2298 36.1707 61.2991 36.2418C62.2572 37.1306 63.0768 38.1733 63.7001 39.3346C63.7463 39.4294 63.804 39.5242 63.8502 39.619C64.4735 40.8396 64.8891 42.1667 65.0738 43.5769L65.1084 43.8968C65.1315 44.1694 65.1546 44.4538 65.1661 44.7382V45.5202Z" fill="#ADA478"/>
<path d="M65.2106 43.5669V43.9342C65.199 44.1949 65.1875 44.4556 65.1644 44.7163C65.049 45.9131 64.7719 47.0626 64.3333 48.1291C64.2986 48.2239 64.2525 48.3187 64.2063 48.4135C63.6291 49.7525 62.8095 50.973 61.8168 52.004L61.7129 52.1106C61.6783 52.1462 61.6436 52.1817 61.5975 52.2173C60.5586 53.2363 59.335 54.054 57.9844 54.6346C57.892 54.682 57.7882 54.7176 57.6958 54.7531C56.3799 55.2627 54.9485 55.5471 53.4709 55.5352C53.3786 55.5352 53.2862 55.5352 53.1823 55.5234H53.1593C51.6471 55.476 50.2157 55.1323 48.8997 54.5517C48.8074 54.5161 48.715 54.4687 48.6227 54.4213C47.2952 53.7933 46.1062 52.9046 45.102 51.8381C45.0673 51.8025 45.0327 51.767 44.9981 51.7196C44.9634 51.684 44.9288 51.6366 44.8942 51.6011C44.5248 51.1863 44.1785 50.736 43.8668 50.262C43.3589 49.4918 42.9318 48.6623 42.6086 47.7854C42.5855 47.7143 42.5624 47.6551 42.5393 47.584C42.5278 47.5484 42.5162 47.5247 42.5047 47.4892C42.2738 46.8019 42.1007 46.0909 41.9852 45.368C41.916 44.9059 41.8698 44.4438 41.8583 43.9698C41.8467 43.7091 41.8467 43.4484 41.8583 43.1877V43.1284C41.8583 43.0218 41.8698 42.9151 41.8698 42.8203C41.9622 41.2917 42.3315 39.846 42.9203 38.5307C42.9318 38.5188 42.9318 38.507 42.9433 38.4951C42.978 38.4359 43.0011 38.3648 43.0357 38.3055C43.0472 38.2818 43.0472 38.27 43.0588 38.2463C43.2435 37.8671 43.4397 37.4997 43.659 37.1561C44.2016 36.2792 44.848 35.4734 45.5983 34.7743C45.6791 34.7032 45.7484 34.6321 45.8292 34.561C46.2332 34.1936 46.6719 33.85 47.1221 33.5537C47.8493 33.056 48.6342 32.6531 49.4654 32.3332C49.5231 32.3095 49.5693 32.2976 49.627 32.2739C49.6616 32.2621 49.6847 32.2502 49.7193 32.2384C49.7309 32.2384 49.7424 32.2266 49.754 32.2266C51.0468 31.7763 52.432 31.5511 53.8749 31.5867H53.898C53.9904 31.5867 54.0943 31.5985 54.1866 31.5985C55.6295 31.6815 57.0032 32.0251 58.2614 32.6057C58.3538 32.6531 58.4461 32.6887 58.5385 32.7361C59.8082 33.3523 60.9395 34.1936 61.9091 35.2127C61.9669 35.2838 62.0361 35.3431 62.0938 35.4142L62.1169 35.4379C63.0635 36.4925 63.8254 37.7249 64.3563 39.0639C64.391 39.135 64.4141 39.2061 64.4371 39.2772L64.4602 39.3483C64.9451 40.6755 65.2106 42.0975 65.2106 43.5669Z" fill="#F3E7A9"/>
<path d="M60.0335 50.2339C63.6217 46.5502 63.6216 40.5779 60.0332 36.8943C56.4448 33.2108 50.627 33.2109 47.0387 36.8946C43.4504 40.5782 43.4505 46.5506 47.0389 50.2341C50.6273 53.9177 56.4452 53.9176 60.0335 50.2339Z" fill="#CFC490"/>
<path d="M53.818 34.1317C53.9104 34.1317 54.0143 34.1436 54.1066 34.1436L54.1874 31.5958C54.0951 31.5958 53.9912 31.584 53.8988 31.584H53.8757L53.7949 34.1317H53.818ZM47.5384 36.4187L45.83 34.5701C45.7492 34.6412 45.6799 34.7123 45.5991 34.7834L47.296 36.6439C47.3768 36.5609 47.4576 36.4898 47.5384 36.4187ZM45.3336 39.3101L45.1951 39.5945L43.5559 38.8361L42.9326 38.5399C42.9441 38.528 42.9441 38.5162 42.9557 38.5043C42.9788 38.4451 43.0134 38.374 43.048 38.3147C43.0596 38.3029 43.0596 38.2792 43.0711 38.2673L43.7291 38.5754L45.3336 39.3101ZM50.632 34.6057L49.7547 32.2239C49.6624 32.2594 49.5585 32.295 49.4662 32.3305L50.3435 34.7123C50.4358 34.6768 50.5397 34.6412 50.632 34.6057ZM62.7295 43.8012L65.2113 43.8841V43.5642L62.7295 43.4812V43.8012ZM62.1523 40.2581L64.4726 39.3575C64.4379 39.2627 64.4033 39.156 64.3571 39.0612L62.0369 39.9618C62.0715 40.0566 62.1177 40.1633 62.1523 40.2581ZM60.3054 37.1771L62.1177 35.4352C62.0485 35.3522 61.9792 35.2811 61.9099 35.21L60.0976 36.952C60.1669 37.0231 60.2361 37.106 60.3054 37.1771ZM57.5119 35.056L58.5393 32.7334C58.4469 32.686 58.3546 32.6505 58.2622 32.6031L57.2349 34.9256C57.3272 34.9612 57.4196 35.0086 57.5119 35.056ZM49.6509 52.1198L48.6235 54.4424C48.7158 54.4898 48.8082 54.5253 48.9005 54.5727L49.9279 52.2501C49.8356 52.2027 49.7432 52.1672 49.6509 52.1198ZM44.364 42.9124C44.3524 43.0191 44.3524 43.1257 44.3524 43.2324L41.9745 43.1613H41.8706C41.8706 43.0546 41.8821 42.948 41.8821 42.8532H42.0322L44.364 42.9124ZM56.8193 52.3805L57.6966 54.7623C57.7889 54.7268 57.8928 54.6912 57.9852 54.6438L57.1079 52.262C57.0155 52.3094 56.9232 52.3449 56.8193 52.3805ZM61.9446 47.3798L64.2071 48.4345C64.2532 48.3397 64.2879 48.2449 64.3225 48.1501L62.06 47.0955C62.0254 47.1902 61.9907 47.285 61.9446 47.3798ZM59.9014 50.3779L61.5983 52.2383C61.6675 52.1672 61.7483 52.0961 61.8176 52.0131L60.1207 50.1527L59.9014 50.3779ZM44.8373 46.6096L42.517 47.5102C42.5517 47.605 42.5863 47.7116 42.6209 47.8064L44.9411 46.9059C44.9065 46.8111 44.8719 46.7044 44.8373 46.6096ZM53.2524 52.9967H53.2293L53.1485 55.5444H53.4602L53.541 52.9967C53.4486 53.0085 53.3563 53.0085 53.2524 52.9967ZM46.7073 49.8802L44.895 51.6221C44.9642 51.705 45.0335 51.7761 45.1028 51.8472L46.9151 50.1053C46.8458 50.0342 46.7765 49.9513 46.7073 49.8802Z" fill="#CFC490"/>
<path d="M45.4724 43.2436C44.4681 44.2745 43.2676 44.9855 41.9979 45.3884C41.9401 45.4121 41.8824 45.4239 41.8247 45.4476V44.7841C41.8363 44.5234 41.8478 44.2508 41.8709 44.002C41.8593 43.7413 41.8593 43.4806 41.8709 43.2199V43.1606C41.8709 43.054 41.8824 42.9473 41.8824 42.8525C41.9748 41.3239 42.3442 39.8782 42.9329 38.5629C42.9444 38.551 42.9444 38.5392 42.956 38.5273C42.9906 38.4681 43.0137 38.397 43.0483 38.3377C43.0598 38.314 43.0598 38.3022 43.0714 38.2785C43.2561 37.8993 43.4523 37.5319 43.6717 37.1883C44.2142 36.3114 44.8606 35.5056 45.6109 34.8065C45.6917 34.7354 45.761 34.6643 45.8418 34.5932C46.2458 34.2258 46.6845 33.8822 47.1347 33.5859C47.3194 33.9888 47.4694 34.4154 47.5964 34.842C48.4044 37.6978 47.7003 40.9565 45.4724 43.2436Z" fill="#CFC490"/>
<path d="M45.4689 29.9504C48.7241 33.292 48.7241 38.7193 45.4689 42.0609C44.2684 43.2933 42.7793 44.0754 41.2209 44.3953C39.928 44.6679 38.5775 44.6086 37.3077 44.2413C35.9802 43.8621 34.722 43.1274 33.6715 42.0491C33.5445 41.9187 33.4176 41.7765 33.3021 41.6343C33.1752 41.4803 33.0482 41.3262 32.9327 41.1722C32.8866 41.1129 32.8404 41.0537 32.8058 40.9944C32.2055 40.1412 31.7784 39.1932 31.5244 38.2216C31.5014 38.1505 31.4898 38.0794 31.4667 37.9964C31.2474 37.0603 31.1897 36.1004 31.282 35.1406C31.2936 35.0695 31.2936 34.9865 31.3051 34.9154C31.4206 34.0149 31.663 33.1261 32.067 32.2848C32.1016 32.2137 32.1362 32.1544 32.1593 32.0833C32.5403 31.3131 33.0482 30.6021 33.6715 29.9622L33.6831 29.9504C33.7292 29.903 33.7754 29.8556 33.8331 29.8082C34.4796 29.1801 35.1837 28.6824 35.9456 28.3032C36.0148 28.2677 36.0841 28.2321 36.1418 28.2084C36.9498 27.8411 37.7925 27.6041 38.6583 27.5093C38.7275 27.4974 38.8083 27.4974 38.8776 27.4856C39.7895 27.4026 40.7245 27.4856 41.6249 27.7107C41.6942 27.7344 41.7634 27.7463 41.8442 27.77C42.7677 28.0307 43.645 28.4573 44.4531 29.0616C44.5108 29.109 44.5685 29.1446 44.6262 29.192C44.7763 29.3105 44.9379 29.4408 45.0764 29.5712C45.2034 29.6897 45.3419 29.82 45.4689 29.9504Z" fill="#ADA478"/>
<path d="M38.7987 43.7655C43.4016 43.7655 47.133 39.935 47.133 35.2099C47.133 30.4848 43.4016 26.6543 38.7987 26.6543C34.1958 26.6543 30.4644 30.4848 30.4644 35.2099C30.4644 39.935 34.1958 43.7655 38.7987 43.7655Z" fill="#F3E7A9"/>
<path d="M38.7962 41.9539C42.4237 41.9539 45.3644 38.9351 45.3644 35.2113C45.3644 31.4875 42.4237 28.4688 38.7962 28.4688C35.1687 28.4688 32.228 31.4875 32.228 35.2113C32.228 38.9351 35.1687 41.9539 38.7962 41.9539Z" fill="#CFC490"/>
<path d="M36.1132 31.4964C35.8003 31.384 35.4801 31.6447 35.5267 31.9739L36.2449 37.047C36.2793 37.29 36.5053 37.4584 36.748 37.4217L39.787 36.9633C39.9461 36.9393 40.0796 36.8306 40.1354 36.6797L41.2004 33.7967C41.2854 33.5664 41.1664 33.311 40.9354 33.2281L36.1132 31.4964ZM42.0743 38.8465C42.0943 39.15 41.8089 39.3824 41.5158 39.3012L38.7082 38.5237C38.2483 38.3963 38.2894 37.7311 38.7615 37.6613L40.1827 37.4511C40.3428 37.4274 40.4772 37.3181 40.5328 37.1661L41.0267 35.817C41.1908 35.3688 41.8505 35.4634 41.882 35.9396L42.0743 38.8465Z" fill="#ADA478"/>
<path d="M36.4867 31.1829C36.1738 31.0706 35.8537 31.3312 35.9003 31.6604L36.6184 36.7335C36.6528 36.9765 36.8788 37.1449 37.1215 37.1083L40.1605 36.6498C40.3197 36.6258 40.4531 36.5171 40.5089 36.3662L41.5739 33.4832C41.6589 33.253 41.5399 32.9975 41.3089 32.9146L36.4867 31.1829ZM42.4478 38.533C42.4679 38.8365 42.1824 39.0689 41.8893 38.9877L39.0818 38.2102C38.6218 38.0828 38.6629 37.4176 39.135 37.3478L40.5563 37.1376C40.7164 37.114 40.8507 37.0046 40.9063 36.8526L41.4003 35.5035C41.5643 35.0553 42.224 35.1499 42.2555 35.6261L42.4478 38.533Z" fill="white"/>
<path d="M34.1568 30.4345C34.203 30.3871 34.2607 30.3397 34.3068 30.2923L33.0486 29.0007C33.0024 29.0481 32.9447 29.0955 32.8985 29.1429L32.887 29.1547L34.1568 30.4345C34.1452 30.4464 34.1452 30.4464 34.1568 30.4345ZM32.2406 34.9138H30.4629V35.1389H32.2406C32.229 35.0678 32.229 34.9849 32.2406 34.9138ZM32.6215 37.5089L30.9823 38.208C31.0054 38.2791 31.0285 38.3502 31.0631 38.4213L32.7023 37.7222C32.6677 37.6392 32.6446 37.58 32.6215 37.5089ZM32.8293 32.3779L31.1901 31.6788C31.1555 31.7499 31.1324 31.821 31.0978 31.8802L32.7369 32.5794C32.7716 32.5083 32.8062 32.4372 32.8293 32.3779ZM43.4146 30.4108L44.6728 29.1192C44.6151 29.0718 44.5689 29.0126 44.5112 28.9652L43.253 30.2568C43.3107 30.3042 43.3569 30.3634 43.4146 30.4108ZM41.3368 28.9888L42.0178 27.3062C41.9486 27.2825 41.8793 27.2469 41.8101 27.2232L41.129 28.9059C41.1983 28.9296 41.2675 28.9533 41.3368 28.9888ZM38.8665 28.4675V26.6426H38.6472V28.4675H38.8665ZM36.4308 28.9177L35.7498 27.2351C35.6805 27.2588 35.6112 27.2943 35.542 27.318L36.223 29.0007C36.2923 28.977 36.3616 28.9414 36.4308 28.9177ZM41.2329 41.4668L41.9139 43.1494C41.9832 43.1257 42.0525 43.0902 42.1217 43.0665L41.4407 41.3838C41.3599 41.4075 41.2906 41.4431 41.2329 41.4668ZM33.9721 39.7841L32.7139 41.0757C32.76 41.135 32.8177 41.1824 32.8639 41.2416L34.1221 39.95C34.076 39.8907 34.0298 39.8315 33.9721 39.7841ZM44.869 37.7577L46.5082 38.4569C46.5313 38.3858 46.5659 38.3147 46.589 38.2436L44.9499 37.5444C44.9268 37.6274 44.9037 37.6985 44.869 37.7577ZM44.846 32.5794L46.4851 31.8802C46.462 31.8091 46.4274 31.738 46.3928 31.6788L44.7536 32.3779C44.7882 32.4372 44.8229 32.5083 44.846 32.5794ZM45.3654 35.1389H47.1431V34.9138H45.3654V35.1389ZM36.0845 41.3483L35.4035 43.0309C35.4727 43.0665 35.542 43.0902 35.5997 43.1257L36.2808 41.443C36.2115 41.4075 36.1422 41.372 36.0845 41.3483ZM43.4377 39.9737L44.6844 41.2653L44.6959 41.2535C44.7421 41.2061 44.7882 41.1587 44.8344 41.0994L43.5762 39.8078C43.5416 39.867 43.4838 39.9263 43.4377 39.9737ZM38.6472 41.9407V43.7656H38.8665V41.9407H38.6472Z" fill="#CFC490"/>
<path d="M63.5811 27.7881C62.4268 30.4306 59.4024 31.6156 56.8282 30.4306C55.8701 29.9922 55.1198 29.2931 54.6004 28.4517C54.1732 27.7526 53.9077 26.9468 53.8269 26.1173C53.7461 25.2523 53.8847 24.3517 54.2541 23.4985C54.3002 23.3918 54.3464 23.2852 54.4041 23.1904C54.4618 23.0837 54.5195 22.9771 54.5888 22.8704C54.6119 22.8349 54.635 22.7875 54.6581 22.7519C55.0044 22.2187 55.4315 21.7565 55.9278 21.3892C55.9625 21.3655 55.9971 21.3299 56.0433 21.3062C56.5166 20.9745 57.036 20.7256 57.5901 20.5716C57.6363 20.5597 57.6824 20.5479 57.7171 20.536C58.2481 20.4057 58.7906 20.3583 59.3447 20.4057C59.3909 20.4057 59.437 20.4175 59.4832 20.4175C59.9911 20.4768 60.499 20.619 60.9954 20.8441H61.0069C61.0416 20.856 61.0877 20.8797 61.1224 20.9034C61.6072 21.1404 62.0458 21.4484 62.4268 21.8158C62.4614 21.8513 62.496 21.875 62.5191 21.9106C62.9001 22.3016 63.2233 22.7519 63.4657 23.2378C63.4888 23.2733 63.5119 23.3207 63.5234 23.3563C63.7658 23.8777 63.9274 24.4346 63.9967 25.0153C63.9967 25.0627 64.0082 25.1101 64.0082 25.1575C64.0659 25.7499 64.0198 26.3661 63.8582 26.9705C63.8466 27.0179 63.8351 27.0653 63.8235 27.1008C63.7889 27.2193 63.7543 27.3378 63.7081 27.4563C63.6619 27.5748 63.6273 27.6815 63.5811 27.7881Z" fill="#ADA478"/>
<path d="M61.0163 29.9057C63.6487 28.8737 64.9678 25.8465 63.9625 23.1442C62.9572 20.4418 60.0083 19.0878 57.3758 20.1197C54.7434 21.1517 53.4243 24.1789 54.4296 26.8813C55.4349 29.5836 58.3838 30.9377 61.0163 29.9057Z" fill="#F3E7A9"/>
<path d="M63.1471 25.7064C63.5194 23.4612 62.0482 21.3313 59.861 20.9491C57.6739 20.5669 55.5991 22.0772 55.2268 24.3224C54.8545 26.5676 56.3258 28.6975 58.5129 29.0797C60.7 29.4618 62.7748 27.9515 63.1471 25.7064Z" fill="#CFC490"/>
<path d="M60.4849 23.0214C60.4853 22.8333 60.2856 22.7122 60.119 22.7996L57.5513 24.1463C57.4283 24.2108 57.3815 24.3632 57.4472 24.4856L58.2689 26.0184C58.312 26.0986 58.3953 26.1491 58.4863 26.1502L60.2254 26.1701C60.3642 26.1717 60.4778 26.0597 60.4781 25.9208L60.4849 23.0214ZM57.6997 27.5954C57.5418 27.6637 57.3637 27.5557 57.3513 27.3841L57.2323 25.7398C57.2128 25.4705 57.5752 25.366 57.7021 25.6044L58.0841 26.322C58.1272 26.4028 58.211 26.4537 58.3026 26.4544L59.1155 26.4614C59.3856 26.4637 59.4605 26.8333 59.2126 26.9406L57.6997 27.5954Z" fill="#ADA478"/>
<path d="M60.7188 23.1601C60.7192 22.972 60.5195 22.8509 60.3529 22.9382L57.7852 24.2849C57.6622 24.3494 57.6154 24.5019 57.6811 24.6243L58.5028 26.1571C58.5459 26.2373 58.6291 26.2878 58.7202 26.2888L60.4592 26.3087C60.5981 26.3103 60.7117 26.1984 60.712 26.0595L60.7188 23.1601ZM57.9336 27.734C57.7757 27.8024 57.5976 27.6944 57.5851 27.5227L57.4662 25.8785C57.4467 25.6092 57.809 25.5047 57.936 25.743L58.318 26.4607C58.3611 26.5415 58.4449 26.5923 58.5364 26.5931L59.3494 26.6C59.6195 26.6024 59.6944 26.972 59.4465 27.0792L57.9336 27.734Z" fill="white"/>
<path d="M60.837 21.2487C60.8717 21.2605 60.9179 21.2842 60.9525 21.3079L61.3911 20.2888C61.3565 20.2651 61.3103 20.2533 61.2757 20.2296H61.2641L60.837 21.2487ZM57.9166 21.1065L57.5241 20.0637C57.4779 20.0755 57.4433 20.0992 57.3971 20.1111L57.7896 21.1539C57.8358 21.1302 57.8819 21.1183 57.9166 21.1065ZM56.566 21.9004L55.8157 21.0828C55.781 21.1183 55.7464 21.142 55.7118 21.1776L56.4621 21.9834C56.4967 21.9597 56.5314 21.9241 56.566 21.9004ZM59.4634 20.905L59.498 19.7911C59.4518 19.7911 59.4057 19.7911 59.3595 19.7793L59.3249 20.8932C59.3826 20.8932 59.4288 20.8932 59.4634 20.905ZM62.8687 26.6878L63.8614 27.1381C63.8845 27.0907 63.896 27.0551 63.9191 27.0077L62.9264 26.5574C62.9033 26.6048 62.8918 26.6404 62.8687 26.6878ZM63.215 25.1473L64.3001 25.1828V25.0406L63.215 25.0051V25.1473ZM62.961 23.595L63.9768 23.1921C63.9653 23.1447 63.9422 23.1091 63.9307 23.0617L62.9149 23.4646C62.9379 23.5002 62.9495 23.5476 62.961 23.595ZM62.1761 22.2559L62.961 21.4857C62.9264 21.4501 62.9033 21.4146 62.8687 21.379L62.0837 22.1493C62.1184 22.1848 62.153 22.2204 62.1761 22.2559ZM56.2312 27.8135L55.4463 28.5837C55.4809 28.6193 55.504 28.6548 55.5386 28.6785L56.3236 27.9083C56.2889 27.8846 56.2659 27.8491 56.2312 27.8135ZM55.5848 23.1921L54.5921 22.7418C54.569 22.7773 54.5574 22.8247 54.5344 22.8721L55.5271 23.3224C55.5502 23.275 55.5733 23.2276 55.5848 23.1921ZM59.094 29.1525L59.0594 30.2664H59.1979L59.2325 29.1525H59.094ZM61.9798 28.0031L62.7302 28.8089C62.7648 28.7733 62.7994 28.7496 62.8225 28.7141L62.0722 27.9083L61.9798 28.0031ZM60.6639 28.8681L61.0564 29.9109C61.1025 29.8991 61.1372 29.8754 61.1834 29.8635L60.7909 28.8207C60.7447 28.8326 60.7101 28.8444 60.6639 28.8681ZM55.1808 24.7681L54.0957 24.7325V24.8747L55.1808 24.9103C55.1692 24.8629 55.1692 24.8155 55.1808 24.7681ZM57.5472 28.7852L57.097 29.8043H57.1085C57.1432 29.8161 57.1893 29.8398 57.224 29.8517L57.6626 28.8326C57.628 28.8207 57.5934 28.8089 57.5472 28.7852ZM55.4001 26.4034L54.3843 26.8063C54.3958 26.8537 54.4189 26.8892 54.4305 26.9366L55.4463 26.5337C55.4347 26.4982 55.4232 26.4508 55.4001 26.4034Z" fill="#CFC490"/>
<path d="M72.9211 54.348C70.3701 56.4217 61.574 63.4368 55.5599 66.5771C48.4491 70.2861 41.5924 66.5771 36.0169 65.8779C34.2161 65.6528 32.6116 66.0557 31.261 66.6956C29.5872 67.5013 28.3175 68.6863 27.5556 69.5158L27.5094 69.5277L26.7476 69.6343V68.236C26.7476 68.236 28.3175 65.9727 30.9609 64.5981C32.3576 63.8634 34.0661 63.3895 36.0054 63.6264C41.5808 64.3256 48.4376 68.0346 55.5483 64.3256C61.4008 61.2802 69.8621 54.5732 72.6787 52.2861C72.8403 52.452 72.9789 52.6179 73.0943 52.772C73.4521 53.2578 73.3598 53.9925 72.9211 54.348Z" fill="#CFC490"/>
<path d="M53.1591 49.8569C53.1476 52.4639 51.5777 54.7983 49.3152 55.3315L47.8953 55.6633C47.4913 55.4382 47.1104 55.1893 46.741 54.9168C45.3904 53.9333 44.2592 52.6535 43.4165 51.1841C46.3254 50.556 49.0381 49.537 51.9355 47.9017C51.9817 47.8898 52.0279 47.878 52.074 47.878C52.5473 47.8543 52.986 48.2453 53.0783 48.8023C53.1245 49.1222 53.1591 49.4422 53.1591 49.7503V49.8569Z" fill="#ADA478"/>
<path d="M53.1577 48.6732C53.1462 51.2801 51.5763 53.6146 49.3138 54.1478L43.9577 55.4039L34.3882 57.6554L34.5613 50.9247C41.4758 50.7469 46.3587 49.87 51.9457 46.7298C51.9919 46.718 52.038 46.7179 52.0842 46.7061C52.5575 46.6824 52.9961 47.0734 53.0885 47.6304C53.1347 47.9503 53.1693 48.2703 53.1693 48.5784C53.1577 48.6139 53.1577 48.6376 53.1577 48.6732Z" fill="#F3E7A9"/>
<path d="M34.5493 51.943C41.4638 51.7653 46.3467 50.8884 51.9337 47.7482C51.9798 47.7363 52.026 47.7363 52.0722 47.7245C52.5455 47.7008 52.9841 48.0918 53.0765 48.6487C53.0996 48.8265 53.1226 48.9924 53.1342 49.1701C53.1457 49.0042 53.1573 48.8383 53.1573 48.6724V48.5776C53.1573 48.2695 53.1226 47.9496 53.0765 47.6297C52.9841 47.0609 52.5455 46.6698 52.0722 46.7054C52.026 46.7054 51.9798 46.7172 51.9337 46.7291C46.3467 49.8693 41.4638 50.758 34.5493 50.9239V51.943Z" fill="#CFC490"/>
<path d="M53.1572 48.6714C53.1457 51.2784 51.5758 53.6128 49.3133 54.1461L46.589 54.786L44.3958 55.3074C44.1072 54.8808 43.8417 54.4305 43.6108 53.9565C43.7032 53.9328 43.7955 53.9209 43.8763 53.8972C44.1072 53.8498 44.3381 53.7906 44.5574 53.7432L45.527 53.5299C46.2196 53.3758 46.9007 53.2218 47.5933 53.0677L47.7665 53.0322C50.4445 52.4397 52.2338 49.6787 51.9221 46.7281V46.7162C51.9683 46.7162 52.0144 46.7044 52.0606 46.7162C52.5454 46.7399 52.961 47.1191 53.0533 47.6642C53.1111 47.9723 53.1341 48.2804 53.1457 48.5885C53.1572 48.6122 53.1572 48.6359 53.1572 48.6714Z" fill="#CFC490"/>
<path d="M30.43 69.1039L27.5557 69.5187L27.5095 69.5305L26.7477 69.6372L25.778 69.7794C25.1547 69.8742 24.5775 69.4239 24.4852 68.7721L22.315 52.8341C22.2227 52.1942 22.6613 51.6017 23.2847 51.5069L27.9366 50.8433C28.2368 50.7959 28.5254 50.8789 28.7447 51.0448C28.9986 51.2225 29.1833 51.5069 29.2295 51.8505L29.3565 52.7748L30.9726 64.601L31.2611 66.7103L31.4112 67.7886C31.492 68.4285 31.0534 69.021 30.43 69.1039Z" fill="#FEFDF6"/>
<path d="M27.5083 69.5292L28.7549 51.0434C28.5241 50.8775 28.2355 50.8064 27.9469 50.842L23.2949 51.5055C22.6716 51.6003 22.2329 52.1928 22.3253 52.8327L24.4839 68.7708C24.5762 69.4107 25.1534 69.861 25.7767 69.778L27.5083 69.5292Z" fill="#FEFDF6"/>
<path d="M31.3963 67.7862L29.2261 51.8482C29.2146 51.7652 29.1915 51.6941 29.1684 51.623L31.0731 65.6059C31.1654 66.2458 30.7268 66.8383 30.1034 66.9331L27.183 67.3478L25.4514 67.5967C24.8974 67.6796 24.3895 67.336 24.2163 66.8264L24.4818 68.7816C24.5742 69.4215 25.1513 69.8718 25.7747 69.7889L27.5062 69.54L30.4267 69.1253C31.05 69.0186 31.4886 68.4261 31.3963 67.7862Z" fill="#FEFDF6"/>
<path d="M19.3938 70.8196H24.5537C25.4079 70.8196 26.1121 70.1086 26.1121 69.2199V50.5919C26.1121 49.715 25.4195 48.9922 24.5537 48.9922H19.3938C18.5396 48.9922 17.8354 49.7032 17.8354 50.5919V69.2199C17.847 70.1086 18.5396 70.8196 19.3938 70.8196Z" fill="#FCF9EA"/>
<path d="M24.7487 49.0039H19.1963C18.446 49.0039 17.8457 49.632 17.8457 50.3903V51.5279C17.8457 50.7577 18.4575 50.1415 19.1963 50.1415H24.7487C25.499 50.1415 26.0992 50.7695 26.0992 51.5279V50.3903C26.1108 49.6201 25.499 49.0039 24.7487 49.0039Z" fill="#FEFDF6"/>
<path d="M24.7487 68.5554H19.1963C18.446 68.5554 17.8457 67.9273 17.8457 67.1689V69.4323C17.8457 70.2025 18.4575 70.8187 19.1963 70.8187H24.7487C25.499 70.8187 26.0992 70.1907 26.0992 69.4323V67.1689C26.1108 67.9273 25.499 68.5554 24.7487 68.5554Z" fill="#FEFDF6"/>
<path d="M23.1551 66.5259C23.8042 65.8595 23.8042 64.7791 23.1551 64.1127C22.5059 63.4463 21.4534 63.4463 20.8043 64.1127C20.1551 64.7791 20.1552 65.8595 20.8043 66.5259C21.4535 67.1923 22.506 67.1923 23.1551 66.5259Z" fill="#FEFDF6"/>
<path d="M23.5955 65.149C23.8065 64.2318 23.2533 63.3127 22.3598 63.0961C21.4663 62.8795 20.571 63.4475 20.36 64.3647C20.1491 65.2819 20.7023 66.201 21.5958 66.4175C22.4893 66.6341 23.3846 66.0662 23.5955 65.149Z" fill="#CFC490"/>
<path d="M21.9787 65.5127C21.2168 65.5127 20.5819 64.9913 20.3857 64.2803C20.3395 64.4343 20.3164 64.5884 20.3164 64.7543C20.3164 65.6904 21.0552 66.4606 21.9787 66.4606C22.8906 66.4606 23.6409 65.7023 23.6409 64.7543C23.6409 64.5884 23.6178 64.4343 23.5716 64.2803C23.3639 64.9913 22.729 65.5127 21.9787 65.5127Z" fill="#ADA478"/>
<path d="M53.8001 36.6579C53.5464 36.2372 52.9364 36.2372 52.6827 36.6579L48.7727 43.1409C48.5854 43.4515 48.6873 43.8552 48.9995 44.0397L52.9095 46.3496C53.1143 46.4706 53.3686 46.4706 53.5733 46.3496L57.4833 44.0397C57.7956 43.8552 57.8975 43.4515 57.7102 43.1409L53.8001 36.6579ZM53.7735 50.6414C53.5134 51.0078 52.9694 51.0078 52.7093 50.6414L50.2177 47.1311C49.8095 46.5561 50.4772 45.8322 51.0833 46.1927L52.9079 47.2778C53.1134 47.4 53.3694 47.4 53.5749 47.2778L55.3996 46.1927C56.0056 45.8322 56.6733 46.5561 56.2651 47.1311L53.7735 50.6414Z" fill="#ADA478"/>
<path d="M54.5189 36.6471C54.2652 36.2264 53.6551 36.2264 53.4014 36.6471L49.4914 43.1302C49.3041 43.4408 49.406 43.8445 49.7183 44.0289L53.6283 46.3389C53.833 46.4598 54.0873 46.4598 54.292 46.3389L58.2021 44.0289C58.5143 43.8445 58.6162 43.4408 58.4289 43.1302L54.5189 36.6471ZM54.4922 50.6307C54.2321 50.9971 53.6882 50.9971 53.4281 50.6307L50.9364 47.1204C50.5283 46.5454 51.1959 45.8215 51.802 46.1819L53.6266 47.267C53.8322 47.3893 54.0881 47.3893 54.2937 47.267L56.1183 46.1819C56.7244 45.8215 57.3921 46.5454 56.9839 47.1204L54.4922 50.6307Z" fill="white"/>
<defs>
<radialGradient id="paint0_radial_315_105840" cx="0" cy="0" r="1" gradientUnits="userSpaceOnUse" gradientTransform="translate(46 46.5) rotate(90) scale(46)">
<stop stop-color="#030303"/>
<stop offset="1" stop-color="#171717"/>
</radialGradient>
</defs>
</svg>
