<svg width="92" height="93" viewBox="0 0 92 93" fill="none" xmlns="http://www.w3.org/2000/svg">
<rect x="0.5" y="0.996094" width="91" height="91" rx="15.5" fill="url(#paint0_radial_365_125903)" stroke="#262626"/>
<path d="M61.0005 23.5V25.5C61.0005 26.0304 60.7898 26.5391 60.4147 26.9142C60.0396 27.2893 59.5309 27.5 59.0005 27.5H33.0005C32.4701 27.5 31.9613 27.2893 31.5863 26.9142C31.2112 26.5391 31.0005 26.0304 31.0005 25.5V23.5H61.0005Z" fill="#ADA478"/>
<path d="M61.0005 23.5V25.5H36.0005C35.4701 25.5 34.9613 25.2893 34.5863 24.9142C34.2112 24.5391 34.0005 24.0304 34.0005 23.5H61.0005Z" fill="#ADA478"/>
<path d="M61.0005 67.5V69.5H31.0005V67.5C31.0005 66.9696 31.2112 66.4609 31.5863 66.0858C31.9613 65.7107 32.4701 65.5 33.0005 65.5H59.0005C59.5309 65.5 60.0396 65.7107 60.4147 66.0858C60.7898 66.4609 61.0005 66.9696 61.0005 67.5Z" fill="#ADA478"/>
<path d="M61.0018 67.4995H36.0018C35.4714 67.4995 34.9627 67.2888 34.5876 66.9137C34.2126 66.5387 34.0018 66.03 34.0018 65.4995C34.0018 65.3995 32.7418 65.4995 59.0018 65.4995C59.5323 65.4995 60.041 65.7102 60.4161 66.0853C60.7911 66.4604 61.0018 66.9691 61.0018 67.4995Z" fill="#ADA478"/>
<path d="M58.0005 65.501H34.0005L34.4605 58.501C34.6309 56.0343 35.4084 53.6479 36.7239 51.5543C38.0394 49.4607 39.852 47.7248 42.0005 46.501C39.852 45.2772 38.0394 43.5412 36.7239 41.4476C35.4084 39.354 34.6309 36.9677 34.4605 34.501L34.0005 27.501H58.0005L57.5405 34.501C57.3701 36.9677 56.5925 39.354 55.2771 41.4476C53.9616 43.5412 52.149 45.2772 50.0005 46.501C52.149 47.7248 53.9616 49.4607 55.2771 51.5543C56.5925 53.6479 57.3701 56.0343 57.5405 58.501C57.9405 64.501 57.8405 62.981 58.0005 65.501Z" fill="#373632"/>
<path d="M57.5407 58.501L57.8707 63.501H40.3407C39.9294 63.5019 39.5222 63.4182 39.1445 63.2551C38.7669 63.092 38.4268 62.8529 38.1454 62.5528C37.8641 62.2527 37.6475 61.8979 37.509 61.5105C37.3706 61.1232 37.3133 60.7114 37.3407 60.301L37.4607 58.501C37.6311 56.0343 38.4087 53.6479 39.7242 51.5543C41.0396 49.4607 42.8523 47.7248 45.0007 46.501C42.8523 45.2772 41.0396 43.5412 39.7242 41.4476C38.4087 39.354 37.6311 36.9677 37.4607 34.501L37.0007 27.501H58.0007L57.5407 34.501C57.3703 36.9677 56.5928 39.354 55.2773 41.4476C53.9618 43.5412 52.1492 45.2772 50.0007 46.501C52.1492 47.7248 53.9618 49.4607 55.2773 51.5543C56.5928 53.6479 57.3703 56.0343 57.5407 58.501Z" fill="#524F44"/>
<path d="M53.5409 65.4992H38.4609C38.5656 63.9372 39.0024 62.4156 39.7422 61.036C40.482 59.6564 41.5078 58.4506 42.7509 57.4992C44.2909 56.2692 45.9109 55.4992 47.4909 56.3692C51.3809 58.5592 53.3209 61.7992 53.5409 65.4992Z" fill="#FAF5DA"/>
<path d="M53.2305 63.5H46.0005C45.4408 63.501 44.892 63.3453 44.4161 63.0507C43.9402 62.756 43.5563 62.3342 43.3076 61.8327C43.059 61.3313 42.9556 60.7703 43.0091 60.2131C43.0626 59.656 43.2709 59.1249 43.6105 58.68C44.3981 57.6318 45.3585 56.7255 46.4505 56C48.3105 56.25 52.1105 59.15 53.2305 63.5Z" fill="#F5EBB8"/>
<path d="M52.9398 36.44C52.1362 38.7275 50.5955 40.6832 48.5598 42C47.2398 42.88 45.9898 43.48 44.5598 42.64C43.1429 41.9308 41.8942 40.9268 40.8973 39.6954C39.9004 38.4639 39.1784 37.0334 38.7798 35.5C40.7798 35.68 40.9298 36.5 43.3298 36.5C45.9998 36.5 45.9998 35.5 48.6698 35.5C50.9198 35.5 51.2698 36.22 52.9398 36.44Z" fill="#FAF5DA"/>
<path d="M52.94 36.44C52.1364 38.7275 50.5957 40.6832 48.56 42C47.19 41.81 44 39.75 42.48 36.5C45.48 36.86 45.87 35.5 48.67 35.5C50.92 35.5 51.27 36.22 52.94 36.44ZM45.29 50.79C45.4783 50.6017 45.7337 50.4959 46 50.4959C46.2663 50.4959 46.5217 50.6017 46.71 50.79C46.8983 50.9783 47.0041 51.2337 47.0041 51.5C47.0041 51.7663 46.8983 52.0217 46.71 52.21C46.5217 52.3983 46.2663 52.5041 46 52.5041C45.7337 52.5041 45.4783 52.3983 45.29 52.21C45.1017 52.0217 44.9959 51.7663 44.9959 51.5C44.9959 51.2337 45.1017 50.9783 45.29 50.79ZM45.08 47.12C45.1965 46.9004 45.3906 46.732 45.6245 46.6478C45.8584 46.5636 46.1153 46.5695 46.3451 46.6644C46.5749 46.7593 46.7611 46.9364 46.8674 47.1611C46.9737 47.3859 46.9924 47.6422 46.92 47.88C46.8035 48.0996 46.6093 48.268 46.3754 48.3522C46.1415 48.4364 45.8846 48.4305 45.6548 48.3356C45.4251 48.2407 45.2389 48.0636 45.1326 47.8389C45.0263 47.6141 45.0075 47.3578 45.08 47.12Z" fill="#F5EBB8"/>
<defs>
<radialGradient id="paint0_radial_365_125903" cx="0" cy="0" r="1" gradientUnits="userSpaceOnUse" gradientTransform="translate(46 46.4961) rotate(90) scale(46)">
<stop stop-color="#030303"/>
<stop offset="1" stop-color="#171717"/>
</radialGradient>
</defs>
</svg>
