<svg version="1.1" xmlns="http://www.w3.org/2000/svg" width="128" height="128">
<path d="M0 0 C1.87226281 0.0017139 3.74452801 0.00164259 5.61679077 -0.00012207 C9.52536223 0.0015247 13.43335565 0.02010697 17.34179688 0.05175781 C22.33611862 0.09148827 27.32968686 0.09579248 32.32413673 0.08829498 C36.184772 0.08521719 40.04523983 0.09737367 43.9058342 0.11442566 C45.74691085 0.12142441 47.58800646 0.12458401 49.42909622 0.12373352 C52.00597333 0.12554328 54.58196814 0.14702295 57.15869141 0.17382812 C57.90903152 0.17089752 58.65937164 0.16796692 59.43244934 0.16494751 C66.65331813 0.28009398 72.89535667 2.28383647 78.3984375 7.15625 C79.10355469 7.75566406 79.80867188 8.35507813 80.53515625 8.97265625 C88.76373628 18.88536218 88.42410424 28.6042817 88.3046875 40.8828125 C88.3029736 42.75507531 88.30304491 44.62734051 88.30480957 46.49960327 C88.3031628 50.40817473 88.28458053 54.31616815 88.25292969 58.22460938 C88.21319923 63.21893112 88.20889502 68.21249936 88.21639252 73.20694923 C88.21947031 77.0675845 88.20731383 80.92805233 88.19026184 84.7886467 C88.18326309 86.62972335 88.18010349 88.47081896 88.18095398 90.31190872 C88.17914422 92.88878583 88.15766455 95.46478064 88.13085938 98.04150391 C88.13378998 98.79184402 88.13672058 99.54218414 88.13973999 100.31526184 C88.02459352 107.53613063 86.02085103 113.77816917 81.1484375 119.28125 C80.54902344 119.98636719 79.94960937 120.69148438 79.33203125 121.41796875 C69.41932532 129.64654878 59.7004058 129.30691674 47.421875 129.1875 C45.54961219 129.1857861 43.67734699 129.18585741 41.80508423 129.18762207 C37.89651277 129.1859753 33.98851935 129.16739303 30.08007812 129.13574219 C25.08575638 129.09601173 20.09218814 129.09170752 15.09773827 129.09920502 C11.237103 129.10228281 7.37663517 129.09012633 3.5160408 129.07307434 C1.67496415 129.06607559 -0.16613146 129.06291599 -2.00722122 129.06376648 C-4.58409833 129.06195672 -7.16009314 129.04047705 -9.73681641 129.01367188 C-10.86232658 129.01806778 -10.86232658 129.01806778 -12.01057434 129.02255249 C-19.23144313 128.90740602 -25.47348167 126.90366353 -30.9765625 122.03125 C-32.03423828 121.13212891 -32.03423828 121.13212891 -33.11328125 120.21484375 C-41.34186128 110.30213782 -41.00222924 100.5832183 -40.8828125 88.3046875 C-40.8810986 86.43242469 -40.88116991 84.56015949 -40.88293457 82.68789673 C-40.8812878 78.77932527 -40.86270553 74.87133185 -40.83105469 70.96289062 C-40.79132423 65.96856888 -40.78702002 60.97500064 -40.79451752 55.98055077 C-40.79759531 52.1199155 -40.78543883 48.25944767 -40.76838684 44.3988533 C-40.76138809 42.55777665 -40.75822849 40.71668104 -40.75907898 38.87559128 C-40.75726922 36.29871417 -40.73578955 33.72271936 -40.70898438 31.14599609 C-40.71191498 30.39565598 -40.71484558 29.64531586 -40.71786499 28.87223816 C-40.60271852 21.65136937 -38.59897603 15.40933083 -33.7265625 9.90625 C-33.12714844 9.20113281 -32.52773438 8.49601563 -31.91015625 7.76953125 C-21.99745032 -0.45904878 -12.2785308 -0.11941674 0 0 Z " fill="#BFBFBF" transform="translate(40.2890625,-0.59375)"/>
<path d="M0 0 C5.28 0 10.56 0 16 0 C16.33 10.56 16.66 21.12 17 32 C19.495625 29.36 21.99125 26.72 24.5625 24 C25.33408447 23.1853125 26.10566895 22.370625 26.90063477 21.53125 C30.20658502 18.02602429 33.47584229 14.49829261 36.65234375 10.875 C37.22251221 10.23248291 37.79268066 9.58996582 38.38012695 8.92797852 C40.02750187 7.02989153 40.02750187 7.02989153 41.40307617 4.96069336 C43.46174162 2.08900555 44.81395645 0.27661166 48.34277344 -0.54638672 C51.05532739 -0.68854033 53.66490827 -0.61340467 56.375 -0.4375 C57.30183594 -0.40591797 58.22867188 -0.37433594 59.18359375 -0.34179688 C61.45904237 -0.25969306 63.72783746 -0.14499775 66 0 C59.46437335 7.66008004 52.87351017 15.22807893 45.68359375 22.28515625 C43.23854806 24.77558562 40.98824432 27.4232877 38.7109375 30.06640625 C36.25809972 32.83844894 33.64889006 35.41571701 31 38 C32.58939426 41.93214301 35.16342502 44.33020346 38.1875 47.25 C41.36818956 50.32837367 44.39233903 53.4132021 47.2734375 56.7734375 C52.1713892 62.44100011 57.58174227 67.59269512 62.94335938 72.81640625 C63.72388672 73.58597656 64.50441406 74.35554688 65.30859375 75.1484375 C66.01814209 75.84114746 66.72769043 76.53385742 67.45874023 77.24755859 C69 79 69 79 69 81 C51.56306042 82.63432022 51.56306042 82.63432022 45.94921875 79.0546875 C43.73386813 76.48126067 41.87289788 73.82961628 40 71 C38.66109805 69.5898257 37.28678667 68.21220171 35.875 66.875 C33.29613787 64.33691039 30.85916852 61.74346747 28.5 59 C24.85171543 54.83053192 20.91755309 50.91755309 17 47 C16.67 58.22 16.34 69.44 16 81 C10.72 81 5.44 81 0 81 C0 54.27 0 27.54 0 0 Z " transform="translate(33,25)"/>
</svg>
