<?xml version="1.0" encoding="utf-8"?>
<!-- Generator: Adobe Illustrator 23.1.1, SVG Export Plug-In . SVG Version: 6.00 Build 0)  -->
<svg version="1.0" id="Layer_1" xmlns="http://www.w3.org/2000/svg" xmlns:xlink="http://www.w3.org/1999/xlink" x="0px" y="0px"
	 viewBox="0 0 140.2 34.5" style="enable-background:new 0 0 140.2 34.5;" xml:space="preserve">
<style type="text/css">
	.st0{fill:#F3E6AC;}
</style>
<polygon class="st0" points="87.8,20.8 87.8,20.7 103.3,20.7 103.3,13.4 87.8,13.4 87.8,7.8 103.7,7.8 103.7,0.6 79.2,0.6 
	79.2,19.6 "/>
<g>
	<path class="st0" d="M117.3,24.7v-2h4.4l1.4,2.8l10.1,1.3l-2.8-5.1c3.1-1.1,6.7-4.2,6.7-10c0-6.2-4.2-11.1-11.6-11.1h-16.7v23
		L117.3,24.7z M117.3,7.8h6.8c2.3,0,4.2,1.5,4.2,3.8c0,2.3-1.9,3.8-4.2,3.8h-6.8V7.8z"/>
	<polygon class="st0" points="61.4,17.3 61.4,0.6 52.7,0.6 52.7,16.1 	"/>
	<polygon class="st0" points="46.7,15.3 46.7,0.6 38.1,0.6 38.1,14.2 	"/>
	<path class="st0" d="M9.3,10.4c1.6-1.7,3.9-2.8,6.6-2.8c3.7,0,6.4,1.9,7.9,4.7l9.5,1.3C31.8,5.4,24.9,0,16,0C8.8,0,2.9,3.5,0,9.2
		L9.3,10.4z"/>
	<polygon class="st0" points="41.2,14.2 41.2,33.9 49.8,33.9 49.8,15.3 	"/>
	<path class="st0" d="M26.9,12.3c0.7,1.4,1.1,3.1,1.1,4.9c0,5.4-3.6,9.7-9.1,9.7c-5.6,0-9.1-4.3-9.1-9.7c0-2.7,0.9-5.1,2.5-6.9
		L3,9.2c-1.2,2.4-1.9,5.1-1.9,8.1c0,10.2,7.7,17.3,17.9,17.3s17.8-7.1,17.8-17.3c0-1.3-0.1-2.5-0.4-3.7L26.9,12.3z"/>
	<polygon class="st0" points="64.4,17.3 55.8,16.1 55.8,33.9 77.8,33.9 77.8,26.4 64.4,26.4 	"/>
	<polygon class="st0" points="126.1,25.4 130.3,33.9 140.2,33.9 136.2,26.8 	"/>
	<polygon class="st0" points="111.7,23.5 111.7,33.9 120.3,33.9 120.3,24.7 	"/>
	<polygon class="st0" points="90.8,20.8 82.2,19.6 82.2,33.9 106.7,33.9 106.7,26.7 90.8,26.7 	"/>
</g>
</svg>
