<svg width="400" height="240" viewBox="0 0 400 240" fill="none" xmlns="http://www.w3.org/2000/svg">
<g clip-path="url(#clip0_28_4495)">
<path d="M140.402 82.0869V82H153.89V75.6522H140.402V70.7826H154.238V64.5217H132.918V81.0435L140.402 82.0869Z" fill="#F3E6AC"/>
<path d="M166.073 85.4782V83.7391H169.902L171.12 86.1739L179.909 87.3043L177.472 82.8696C180.17 81.913 183.303 79.2174 183.303 74.1739C183.303 68.7826 179.648 64.5217 173.208 64.5217H158.676V84.5217L166.073 85.4782ZM166.073 70.7826H171.99C173.992 70.7826 175.645 72.0869 175.645 74.0869C175.645 76.0869 173.992 77.3913 171.99 77.3913H166.073V70.7826Z" fill="#F3E6AC"/>
<path d="M117.43 79.0435V64.5217H109.859V78L117.43 79.0435Z" fill="#F3E6AC"/>
<path d="M104.638 77.3043V64.5217H97.1543V76.3478L104.638 77.3043Z" fill="#F3E6AC"/>
<path d="M72.0927 73.0435C73.485 71.5652 75.4864 70.6087 77.8359 70.6087C81.0556 70.6087 83.4051 72.2609 84.7104 74.6957L92.9772 75.8261C91.6719 68.6957 85.6676 64 77.923 64C71.6576 64 66.5235 67.0435 64 72L72.0927 73.0435Z" fill="#F3E6AC"/>
<path d="M99.8516 76.3479V93.4783H107.335V77.3044L99.8516 76.3479Z" fill="#F3E6AC"/>
<path d="M87.4078 74.6957C88.0169 75.913 88.365 77.3913 88.365 78.9565C88.365 83.6522 85.2324 87.3913 80.4463 87.3913C75.5733 87.3913 72.5276 83.6522 72.5276 78.9565C72.5276 76.6087 73.3108 74.5217 74.7031 72.9565L66.6104 72C65.5662 74.087 64.957 76.4348 64.957 79.0435C64.957 87.913 71.6575 94.087 80.5334 94.087C89.4092 94.087 96.0227 87.913 96.0227 79.0435C96.0227 77.913 95.9356 76.8696 95.6746 75.8261L87.4078 74.6957Z" fill="#F3E6AC"/>
<path d="M120.04 79.0435L112.556 78V93.4783H131.7V86.9565H120.04V79.0435Z" fill="#F3E6AC"/>
<path d="M173.73 86.0869L177.385 93.4782H186L182.519 87.3043L173.73 86.0869Z" fill="#F3E6AC"/>
<path d="M161.2 84.4348V93.4783H168.683V85.4783L161.2 84.4348Z" fill="#F3E6AC"/>
<path d="M143.013 82.0869L135.529 81.0435V93.4782H156.849V87.2174H143.013V82.0869Z" fill="#F3E6AC"/>
</g>
<path d="M190.928 94.168C190.384 94.168 189.92 93.984 189.536 93.616C189.152 93.232 188.96 92.752 188.96 92.176C188.96 91.568 189.152 91.088 189.536 90.736C189.92 90.368 190.384 90.184 190.928 90.184C191.472 90.184 191.936 90.368 192.32 90.736C192.704 91.088 192.896 91.568 192.896 92.176C192.896 92.752 192.704 93.232 192.32 93.616C191.936 93.984 191.472 94.168 190.928 94.168ZM196.115 94V77.2H203.027C204.515 77.2 205.787 77.44 206.843 77.92C207.915 78.4 208.739 79.088 209.315 79.984C209.891 80.88 210.179 81.944 210.179 83.176C210.179 84.408 209.891 85.472 209.315 86.368C208.739 87.264 207.915 87.952 206.843 88.432C205.787 88.912 204.515 89.152 203.027 89.152H197.843L199.235 87.688V94H196.115ZM199.235 88.024L197.843 86.512H202.883C204.259 86.512 205.291 86.224 205.979 85.648C206.683 85.056 207.035 84.232 207.035 83.176C207.035 82.104 206.683 81.28 205.979 80.704C205.291 80.128 204.259 79.84 202.883 79.84H197.843L199.235 78.304V88.024ZM213.295 94V77.2H216.415V94H213.295ZM224.367 94V79.84H218.799V77.2H233.055V79.84H227.487V94H224.367ZM242.938 94.24C241.658 94.24 240.466 94.032 239.362 93.616C238.274 93.184 237.322 92.584 236.506 91.816C235.706 91.032 235.082 90.112 234.634 89.056C234.186 88 233.962 86.848 233.962 85.6C233.962 84.352 234.186 83.2 234.634 82.144C235.082 81.088 235.714 80.176 236.53 79.408C237.346 78.624 238.298 78.024 239.386 77.608C240.474 77.176 241.666 76.96 242.962 76.96C244.338 76.96 245.594 77.2 246.73 77.68C247.866 78.144 248.826 78.84 249.61 79.768L247.594 81.664C246.986 81.008 246.306 80.52 245.554 80.2C244.802 79.864 243.986 79.696 243.106 79.696C242.226 79.696 241.418 79.84 240.682 80.128C239.962 80.416 239.33 80.824 238.786 81.352C238.258 81.88 237.842 82.504 237.538 83.224C237.25 83.944 237.106 84.736 237.106 85.6C237.106 86.464 237.25 87.256 237.538 87.976C237.842 88.696 238.258 89.32 238.786 89.848C239.33 90.376 239.962 90.784 240.682 91.072C241.418 91.36 242.226 91.504 243.106 91.504C243.986 91.504 244.802 91.344 245.554 91.024C246.306 90.688 246.986 90.184 247.594 89.512L249.61 91.432C248.826 92.344 247.866 93.04 246.73 93.52C245.594 94 244.33 94.24 242.938 94.24ZM264.408 77.2H267.528V94H264.408V77.2ZM255.72 94H252.6V77.2H255.72V94ZM264.648 86.8H255.456V84.136H264.648V86.8ZM272.029 94V77.2H275.149V91.36H283.933V94H272.029ZM284.044 94L291.604 77.2H294.676L302.26 94H298.996L292.492 78.856H293.74L287.26 94H284.044ZM287.524 90.112L288.364 87.664H297.436L298.276 90.112H287.524ZM307.181 90.04L307.013 86.344L315.821 77.2H319.325L312.005 84.976L310.277 86.872L307.181 90.04ZM304.397 94V77.2H307.517V94H304.397ZM316.109 94L309.677 86.344L311.741 84.064L319.757 94H316.109ZM324.761 84.184H333.113V86.752H324.761V84.184ZM325.001 91.384H334.481V94H321.881V77.2H334.145V79.816H325.001V91.384Z" fill="#F3E6AC"/>
<path d="M72.087 154.043C73.4783 152.565 75.4783 151.609 77.8262 151.609C81.0436 151.609 83.3914 153.261 84.6958 155.696L92.9567 156.826C91.6523 149.696 85.6523 145 77.9131 145C71.6522 145 66.5218 148.043 64 153L72.087 154.043Z" fill="#F3E6AC"/>
<path d="M87.3914 155.696C88.0001 156.913 88.348 158.391 88.348 159.957C88.348 164.652 85.2175 168.391 80.4349 168.391C75.5653 168.391 72.5218 164.652 72.5218 159.957C72.5218 157.609 73.3044 155.522 74.6957 153.957L66.6087 153C65.5652 155.087 64.9565 157.435 64.9565 160.043C64.9565 168.913 71.6522 175.087 80.5218 175.087C89.3915 175.087 96.0002 168.913 96.0002 160.043C96.0002 158.913 95.9132 157.87 95.6524 156.826L87.3914 155.696Z" fill="#F3E6AC"/>
<defs>
<clipPath id="clip0_28_4495">
<rect width="122" height="30" fill="white" transform="translate(64 64)"/>
</clipPath>
</defs>
</svg>
