<svg width="673" height="68" viewBox="0 0 673 68" fill="none" xmlns="http://www.w3.org/2000/svg">
<path fill-rule="evenodd" clip-rule="evenodd" d="M74.1374 31.1996C73.7964 27.5063 72.8965 24.0552 71.4379 20.8462C69.5976 16.6579 67.0275 13.0089 63.7276 9.89944C60.4277 6.72646 56.5249 4.28327 52.0193 2.56986C47.5771 0.856459 42.659 -0.000244141 37.265 -0.000244141C31.9344 -0.000244141 27.0163 0.856459 22.5106 2.56986C18.005 4.28327 14.0705 6.72646 10.7072 9.89944C7.40729 13.0089 4.83718 16.6579 2.99685 20.8462C1.78146 23.6123 0.967408 26.5582 0.554688 29.6841L19.6853 30.0781C19.9047 28.9371 20.2119 27.8587 20.6069 26.8431C21.5587 24.4951 22.8279 22.4961 24.4144 20.8462C26.0644 19.1328 27.9682 17.8319 30.1258 16.9434C32.3469 16.055 34.7266 15.6108 37.265 15.6108C39.8033 15.6108 42.1513 16.055 44.309 16.9434C46.53 17.8319 48.4338 19.1328 50.0203 20.8462C51.6703 22.4961 52.9395 24.4951 53.8279 26.8431C54.3398 28.0718 54.7141 29.3922 54.9507 30.8044L74.1374 31.1996ZM170.974 33.194C171.612 30.9678 171.931 28.5653 171.931 25.9864C171.931 20.9097 170.725 16.5309 168.314 12.8503C165.902 9.10619 162.475 6.25052 158.033 4.28327C153.655 2.31603 148.419 1.3324 142.327 1.3324H111.867V31.9767L130.714 32.3649V16.1819H141.185C145.119 16.1819 148.038 17.0386 149.942 18.752C151.909 20.4654 152.893 22.8769 152.893 25.9864C152.893 28.8265 152.038 31.0873 150.328 32.7688L170.974 33.194ZM199.968 33.7912L181.12 33.403V1.3324H199.968V33.7912ZM246.408 34.7477L227.56 34.3595V16.2771H207.094V1.3324H266.778V16.2771H246.408V34.7477ZM288.498 35.6146L269.447 35.2222C269.445 35.0316 269.443 34.8404 269.443 34.6486C269.443 29.5719 270.363 24.9393 272.204 20.751C274.044 16.4992 276.582 12.8186 279.819 9.70905C283.119 6.59954 286.99 4.21981 291.432 2.56986C295.938 0.856459 300.824 -0.000244141 306.091 -0.000244141C312.247 -0.000244141 317.736 1.07857 322.559 3.23619C327.445 5.39381 331.507 8.50333 334.743 12.5647L322.749 23.4163C320.592 20.8779 318.212 18.9424 315.61 17.6098C313.072 16.2771 310.216 15.6108 307.043 15.6108C304.314 15.6108 301.808 16.055 299.523 16.9434C297.239 17.8319 295.271 19.1328 293.621 20.8462C292.035 22.4961 290.766 24.4951 289.814 26.8431C288.925 29.1911 288.481 31.7929 288.481 34.6486C288.481 34.9739 288.487 35.2959 288.498 35.6146ZM438.685 38.7078L419.837 38.3196V1.3324H438.685V38.7078ZM536.006 40.7122L518.566 1.3324H500.004L483.102 39.6226L501.045 39.9922L509.142 19.816L517.375 40.3285L536.006 40.7122ZM643.653 42.9293L624.996 42.5451V1.3324H666.984L666.684 15.8964H643.653V27.1287H666.452L666.162 41.2167H643.653V42.9293ZM600.069 42.0317L581.101 41.641L577.328 41.5633L572.075 41.4551L569.682 41.4058L553.418 41.0708V1.3324H572.075V29.0141L597.871 1.3324H618.623L591.418 30.8038L600.069 42.0317ZM406.543 38.0458L389.028 37.6851L387.695 37.6576L361.994 37.1283L360.661 37.1008L343.147 36.7401V1.3324H361.994V26.3672H387.695V1.3324H406.543V38.0458Z" fill="#F5EBB8"/>
<path fill-rule="evenodd" clip-rule="evenodd" d="M27.5106 65.2601C32.0162 66.9735 36.9343 67.8302 42.2649 67.8302C47.659 67.8302 52.5771 66.9735 57.0192 65.2601C61.5249 63.5466 65.4276 61.1352 68.7275 58.0257C72.0274 54.9162 74.5975 51.2672 76.4379 47.0789C78.3416 42.8271 79.2935 38.1946 79.2935 33.1813C79.2935 32.2805 79.2628 31.393 79.2013 30.5188L60.0671 30.1247C60.1928 31.1017 60.2557 32.1205 60.2557 33.1813C60.2557 36.037 59.7797 38.6388 58.8278 40.9868C57.9394 43.3348 56.6702 45.3655 55.0203 47.0789C53.4338 48.7289 51.53 49.9981 49.3089 50.8865C47.1513 51.7749 44.8033 52.2191 42.2649 52.2191C39.7265 52.2191 37.3468 51.7749 35.1257 50.8865C32.9681 49.9981 31.0643 48.7289 29.4144 47.0789C27.8279 45.3655 26.5587 43.3348 25.6068 40.9868C24.7184 38.6388 24.2742 36.037 24.2742 33.1813C24.2742 31.8529 24.3662 30.5902 24.5501 29.3932L5.46005 29C5.3109 30.3603 5.23633 31.7541 5.23633 33.1813C5.23633 38.1946 6.15649 42.7954 7.99681 46.9837C9.83714 51.1721 12.4072 54.8527 15.7071 58.0257C19.0705 61.1352 23.005 63.5466 27.5106 65.2601ZM672.534 51.9336L672.234 66.4975H629.996V41.8629L648.653 42.2472V51.9336H672.534ZM424.837 37.6375L443.684 38.0256V51.5528H475.478V66.4975H424.837V37.6375ZM274.466 34.5404L293.539 34.9333C293.686 37.1102 294.11 39.128 294.814 40.9868C295.766 43.3348 297.035 45.3655 298.621 47.0789C300.271 48.7289 302.239 49.9981 304.523 50.8865C306.808 51.7749 309.314 52.2191 312.043 52.2191C315.216 52.2191 318.072 51.5528 320.61 50.2202C323.212 48.8875 325.592 46.952 327.749 44.4136L339.743 55.2652C336.507 59.2631 332.445 62.3727 327.559 64.5937C322.736 66.7514 317.247 67.8302 311.091 67.8302C305.824 67.8302 300.938 67.0052 296.432 65.3552C291.99 63.6418 288.119 61.2304 284.819 58.1209C281.582 55.0114 279.044 51.3624 277.204 47.1741C275.529 43.3045 274.616 39.0933 274.466 34.5404ZM232.56 33.6773L251.407 34.0655V66.4975H232.56V33.6773ZM186.12 32.7209L204.968 33.1091V66.4975H186.12V32.7209ZM116.866 31.2945V66.4975H135.714V49.0779H147.327C153.419 49.0779 158.655 48.0943 163.033 46.127C167.475 44.0963 170.902 41.2406 173.314 37.56C174.338 35.996 175.145 34.3116 175.735 32.507L154.445 32.0685C152.545 33.5084 149.792 34.2284 146.185 34.2284H135.714V31.6827L116.866 31.2945ZM348.146 36.058L365.661 36.4187L366.994 36.4461L392.695 36.9755L394.028 37.0029L411.542 37.3637V66.4975H392.695V40.5109H366.994V66.4975H348.146V36.058ZM487.758 38.9334L505.733 39.3036L505.592 39.6542H522.693L522.692 39.6529L522.754 39.6542L529.133 39.7855L541.357 40.0373L553.075 66.4975H533.466L528.27 53.5518H500.014L494.819 66.4975H475.591L487.758 38.9334ZM558.418 40.3887L574.72 40.7245L577.075 40.773L582.958 40.8941L585.365 40.9437L605.684 41.3622L625.05 66.4975H603.157L584.073 42.3077L577.075 49.8053V66.4975H558.418V40.3887Z" fill="#F5EBB8"/>
</svg>
